<?xml version="1.0" encoding="UTF-8" standalone="no"?>
<!-- Uploaded to: SVG Repo, www.svgrepo.com, Generator: SVG Repo Mixer Tools -->

<svg
   width="32"
   height="32"
   viewBox="0 0 1.6000002 1.6000002"
   aria-hidden="true"
   role="img"
   class="iconify iconify--emojione"
   preserveAspectRatio="xMidYMid"
   version="1.1"
   id="svg17"
   xmlns="http://www.w3.org/2000/svg"
   xmlns:svg="http://www.w3.org/2000/svg">
  <defs
     id="defs17" />

  <g
     fill="#2a5f9e"
     id="g4"
     transform="matrix(0.02666667,0,0,0.02666667,-0.05333334,-0.05333334)">
    <path
       d="M 22,60.3 V 46.5 l -10.3,7.6 c 2.9,2.7 6.4,4.8 10.3,6.2"
       id="path1" />
    <path
       d="m 42,60.3 c 3.9,-1.4 7.4,-3.5 10.3,-6.2 L 42,46.4 v 13.9"
       id="path2" />
    <path
       d="m 3.7,42 c 0.3,1 0.7,1.9 1.2,2.9 L 8.8,42 H 3.7"
       id="path3" />
    <path
       d="m 55.2,42 3.9,2.9 C 59.5,44 59.9,43 60.3,42 h -5.1"
       id="path4" />
  </g>
  <g
     fill="#ffffff"
     id="g6"
     transform="matrix(0.02666667,0,0,0.02666667,-0.05333334,-0.05333334)">
    <path
       d="M 23.5,38 H 2.6 c 0.3,1.4 0.7,2.7 1.1,4 h 5.1 l -3.9,2.9 c 0.8,1.7 1.7,3.2 2.8,4.7 L 18,42 h 4 v 2 L 10.3,52.6 11.7,54 22,46.5 v 13.8 c 1.3,0.5 2.6,0.8 4,1.1 V 38 h -2.5"
       id="path5" />
    <path
       d="M 61.4,38 H 38 v 23.4 c 1.4,-0.3 2.7,-0.7 4,-1.1 V 46.5 L 52.3,54 c 1.4,-1.3 2.6,-2.7 3.8,-4.2 L 45.4,42 h 6.8 l 6.1,4.5 c 0.3,-0.5 0.6,-1.1 0.8,-1.6 L 55.2,42 h 5.1 c 0.4,-1.3 0.8,-2.6 1.1,-4"
       id="path6" />
  </g>
  <g
     fill="#ed4c5c"
     id="g8"
     transform="matrix(0.02666667,0,0,0.02666667,-0.05333334,-0.05333334)">
    <path
       d="m 7.7,49.6 c 0.8,1.1 1.6,2.1 2.5,3.1 L 22,44.1 v -2 H 18 L 7.7,49.6"
       id="path7" />
    <path
       d="m 45.5,42 10.7,7.8 c 0.4,-0.5 0.7,-1 1.1,-1.5 0.1,-0.1 0.1,-0.2 0.2,-0.2 0.3,-0.5 0.7,-1.1 1,-1.6 L 52.2,42 h -6.7"
       id="path8" />
  </g>
  <g
     fill="#2a5f9e"
     id="g12"
     transform="matrix(0.02666667,0,0,0.02666667,-0.05333334,-0.05333334)">
    <path
       d="M 42,3.7 V 17.5 L 52.3,9.9 C 49.4,7.2 45.9,5.1 42,3.7"
       id="path9" />
    <path
       d="M 22,3.7 C 18.1,5.1 14.6,7.2 11.7,9.9 L 22,17.6 V 3.7"
       id="path10" />
    <path
       d="M 60.3,22 C 60,21 59.6,20.1 59.1,19.1 L 55.2,22 h 5.1"
       id="path11" />
    <path
       d="M 8.8,22 4.9,19.1 C 4.5,20.1 4.1,21 3.7,22 h 5.1"
       id="path12" />
  </g>
  <g
     fill="#ffffff"
     id="g14"
     transform="matrix(0.02666667,0,0,0.02666667,-0.05333334,-0.05333334)">
    <path
       d="M 40.5,26 H 61.3 C 61,24.6 60.6,23.3 60.2,22 H 55.1 L 59,19.1 C 58.2,17.4 57.3,15.9 56.2,14.4 L 46,22 H 42 V 20 L 53.7,11.4 52.3,10 42,17.5 V 3.7 C 40.7,3.2 39.4,2.9 38,2.6 V 26 h 2.5"
       id="path13" />
    <path
       d="M 2.6,26 H 26 V 2.6 C 24.6,2.9 23.3,3.3 22,3.7 V 17.5 L 11.7,10 c -1.4,1.3 -2.6,2.7 -3.8,4.2 L 18.6,22 H 11.8 L 5.7,17.5 C 5.4,18 5.1,18.6 4.9,19.1 L 8.8,22 H 3.7 c -0.4,1.3 -0.8,2.6 -1.1,4"
       id="path14" />
  </g>
  <g
     fill="#ed4c5c"
     id="g17"
     transform="matrix(0.02666667,0,0,0.02666667,-0.05333334,-0.05333334)">
    <path
       d="M 56.3,14.4 C 55.5,13.3 54.7,12.3 53.8,11.3 L 42,19.9 v 2 h 4 l 10.3,-7.5"
       id="path15" />
    <path
       d="M 18.5,22 7.9,14.2 c -0.4,0.5 -0.7,1 -1.1,1.5 -0.1,0.1 -0.1,0.2 -0.2,0.2 -0.3,0.5 -0.7,1.1 -1,1.6 l 6.1,4.5 h 6.8"
       id="path16" />
    <path
       d="M 61.4,26 H 38 V 2.6 C 36.1,2.2 34.1,2 32,2 29.9,2 27.9,2.2 26,2.6 V 26 H 2.6 C 2.2,27.9 2,29.9 2,32 c 0,2.1 0.2,4.1 0.6,6 H 26 v 23.4 c 1.9,0.4 3.9,0.6 6,0.6 2.1,0 4.1,-0.2 6,-0.6 V 38 h 23.4 c 0.4,-1.9 0.6,-3.9 0.6,-6 0,-2.1 -0.2,-4.1 -0.6,-6"
       id="path17" />
  </g>
</svg>
