<?xml version="1.0" encoding="UTF-8" standalone="no"?>
<!-- Created with Inkscape (http://www.inkscape.org/) -->

<svg
   version="1.1"
   id="svg1"
   width="32"
   height="32"
   viewBox="0 0 1313.9104 1314.1636"
   sodipodi:docname="lastech_logo.svg"
   inkscape:version="1.4.2 (2aeb623e1d, 2025-05-12)"
   xmlns:inkscape="http://www.inkscape.org/namespaces/inkscape"
   xmlns:sodipodi="http://sodipodi.sourceforge.net/DTD/sodipodi-0.dtd"
   xmlns="http://www.w3.org/2000/svg"
   xmlns:svg="http://www.w3.org/2000/svg">
  <defs
     id="defs1">
    <rect
       x="234.60001"
       y="938.40002"
       width="958.79999"
       height="237.14999"
       id="rect1" />
  </defs>
  <sodipodi:namedview
     id="namedview1"
     pagecolor="#505050"
     bordercolor="#eeeeee"
     borderopacity="1"
     inkscape:showpageshadow="0"
     inkscape:pageopacity="0"
     inkscape:pagecheckerboard="0"
     inkscape:deskcolor="#505050"
     showgrid="false"
     inkscape:zoom="0.78431373"
     inkscape:cx="661.725"
     inkscape:cy="657.9"
     inkscape:window-width="2560"
     inkscape:window-height="1276"
     inkscape:window-x="0"
     inkscape:window-y="0"
     inkscape:window-maximized="1"
     inkscape:current-layer="g1" />
  <g
     inkscape:groupmode="layer"
     inkscape:label="Image"
     id="g1"
     transform="translate(-1.5052697,-4.9263123)">
    <path
       d="m 268.81836,962.40039 h 33.75 l -28.40625,145.87501 h -33.65625 z m 94.78125,98.62501 q -12.5625,0 -19.03125,3.9375 -6.375,3.8437 -6.375,11.4375 0,5.7187 3.75,9 3.84375,3.2812 10.5,3.2812 10.3125,0 17.25,-6.1875 6.9375,-6.2812 9.28125,-17.625 l 0.75,-3.8437 z m 52.40625,-12.6563 -11.71875,59.9063 h -33.5625 l 2.8125,-15.5625 q -8.25,9.375 -17.4375,13.875 -9.1875,4.4062 -19.96875,4.4062 -14.90625,0 -23.71875,-7.6875 -8.71875,-7.7812 -8.71875,-20.9062 0,-20.0625 15.46875,-30.6563 15.5625,-10.6875 44.8125,-10.6875 h 19.78125 l 0.375,-2.625 q 0.28125,-1.3125 0.28125,-1.875 0.0937,-0.5625 0.0937,-1.0312 0,-6.1875 -5.90625,-9.2813 -5.8125,-3.1875 -17.34375,-3.1875 -10.40625,0 -20.15625,2.1563 -9.75,2.1562 -18.84375,6.4687 l 5.0625,-25.5937 q 10.5,-2.625 21.46875,-3.9375 11.0625,-1.4063 22.875,-1.4063 23.34375,0 34.6875,8.0625 11.34375,7.9688 11.34375,24.375 0,3.1875 -0.46875,7.0313 -0.375,3.75 -1.21875,8.1562 z m 121.5,-41.8125 -4.96875,26.0625 q -9.84375,-4.6875 -19.59375,-7.125 -9.75,-2.4375 -18.46875,-2.4375 -9.9375,0 -15.375,2.625 -5.34375,2.5313 -5.34375,7.3125 0,2.8125 3,4.5 3,1.6875 11.8125,3.5625 l 6.09375,1.125 q 20.34375,4.3125 28.5,11.1563 8.15625,6.75 8.15625,18.8437 0,18.2813 -14.34375,28.5938 -14.34375,10.2187 -40.125,10.2187 -10.78125,0 -22.03125,-1.6875 -11.25,-1.6875 -22.96875,-5.0625 l 5.0625,-26.3437 q 9.09375,5.3437 19.40625,8.0625 10.40625,2.7187 21.28125,2.7187 10.59375,0 15.9375,-2.5312 5.34375,-2.5313 5.34375,-7.4063 0,-3.375 -3,-5.25 -3,-1.875 -12.375,-3.8437 l -6.09375,-1.125 q -18,-3.75 -25.6875,-11.0625 -7.6875,-7.3125 -7.6875,-20.25 0,-17.5313 13.21875,-27 13.3125,-9.4688 37.96875,-9.4688 10.78125,0 21.1875,1.5 10.5,1.4063 21.09375,4.3125 z m 21.375,-38.24996 h 129 l -5.34375,27.28125 h -46.5 l -21.9375,112.68751 h -36.09375 l 21.9375,-112.68751 h -46.5 z m 212.34375,91.40626 -1.125,5.3437 h -78.5625 q 0,0.5625 -0.0937,1.6875 -0.0937,1.0313 -0.0937,1.5938 0,10.2187 6.09375,15.2812 6.1875,5.0625 18.46875,5.0625 10.59375,0 22.3125,-3.1875 11.8125,-3.1875 24.75,-9.4687 l -5.15625,26.0625 q -12.28125,4.5 -24.46875,6.6562 -12.09375,2.25 -24.65625,2.25 -24.5625,0 -37.96875,-11.3437 -13.3125,-11.3438 -13.3125,-32.0625 0,-12 4.21875,-23.25 4.3125,-11.3438 12.46875,-20.7188 9.65625,-11.25 23.0625,-17.0625 13.5,-5.8125 29.90625,-5.8125 21.28125,0 33.75,11.3438 12.5625,11.3437 12.5625,30.5625 0,3.75 -0.5625,7.9687 -0.46875,4.125 -1.59375,9.0938 z m -31.6875,-15.375 q 0.28125,-1.2188 0.375,-2.4375 0.1875,-1.3125 0.1875,-2.5313 0,-7.5 -4.5,-11.9062 -4.5,-4.4063 -12.1875,-4.4063 -9.84375,0 -16.78125,5.4375 -6.84375,5.3438 -10.5,15.8438 z m 152.71875,-37.7813 -5.34375,27.375 q -6.75,-4.5 -13.3125,-6.8437 -6.5625,-2.3438 -12.84375,-2.3438 -16.40625,0 -26.8125,11.0625 -10.40625,10.9688 -10.40625,28.125 0,10.9688 6.46875,17.0625 6.46875,6 18.28125,6 7.875,0 15.46875,-2.3437 7.59375,-2.3438 14.4375,-6.9375 l -5.15625,27.4687 q -8.34375,2.9063 -16.78125,4.3125 -8.4375,1.5 -16.96875,1.5 -24.75,0 -38.15625,-11.0625 -13.3125,-11.1562 -13.3125,-31.5937 0,-12.8438 4.875,-24.9375 4.96875,-12.0938 14.15625,-21.75 10.21875,-10.5938 23.4375,-15.75 13.21875,-5.1563 30.46875,-5.1563 7.96875,0 15.84375,1.5 7.875,1.4063 15.65625,4.3125 z m 126.09374,37.7813 -12.4687,63.9375 h -33.65629 l 10.59375,-54.75 q 1.125,-5.3438 1.6875,-9 0.65625,-3.75 0.65625,-5.9063 0,-6 -3.375,-9.2812 -3.28125,-3.2813 -9.375,-3.2813 -10.40625,0 -17.90625,8.1563 -7.40625,8.0625 -10.3125,22.4062 l -10.125,51.6563 h -33.65625 l 28.3125,-145.87501 h 33.75 l -10.96875,56.25001 q 9.28125,-9.0938 18.65625,-13.5 9.375,-4.4063 19.59375,-4.4063 14.53124,0 22.40624,7.5938 7.875,7.5937 7.875,21.375 0,3 -0.4687,6.6562 -0.375,3.6563 -1.2188,7.9688 z"
       id="text1"
       style="font-style:italic;font-weight:bold;font-size:192px;-inkscape-font-specification:'sans-serif Bold Italic';white-space:pre"
       transform="translate(42.075,-11.475)"
       aria-label="lasTech&#10;" />
    <path
       style="fill:#000000"
       d="m 617.4,1318.9369 c -1.1,-0.1845 -8.075,-0.8555 -15.5,-1.4912 -41.5921,-3.561 -74.42811,-9.5026 -121.65909,-22.0142 -4.3125,-1.1424 -16.41634,-4.9278 -26.89741,-8.4121 C 375.98925,1261.3039 302.74429,1220.952 241.9,1170.5313 144.91727,1090.1634 74.46366,987.8033 35.01234,869.95 14.41815,808.42881 4.18758,749.81174 1.91127,680.29416 0.17492,627.2668 3.9458,582.20843 14.42396,530.77955 40.54076,402.59315 103.84257,286.59945 198.57587,193.3411 253.98044,138.79915 317.04612,95.6319 389.667,62.54288 502.60443,11.08401 633.8163,-6.74218 758.4,12.44752 828.6304,23.26514 889.6747,42.8052 954.3003,75.1545 c 95.6632,47.88565 181.4084,122.20439 243.2527,210.83687 67.3552,96.53031 106.1613,204.39989 116.5443,323.95863 1.7668,20.34355 1.7549,92.7196 -0.018,109.5 -5.673,53.69824 -12.7128,89.78832 -26.2719,134.6866 -39.7338,131.5699 -124.3095,251.6505 -235.9075,334.9415 -70.1773,52.3767 -153.3069,91.794 -235,111.4291 -9.075,2.1812 -18.075,4.3783 -20,4.8823 -5.8079,1.5208 -34.1298,6.5745 -45.5,8.1189 -33.2795,4.5203 -43.958,5.1846 -88,5.4743 -24.2,0.1592 -44.9,0.1386 -46,-0.046 z m 94.5,-39.9357 c 60.8988,-5.6349 110.9504,-17.0842 166.5,-38.0869 105.0437,-39.7158 196.9677,-107.5499 268.2676,-197.9643 86.7429,-109.9977 134.0856,-250.72457 130.8655,-389 -1.8342,-78.76815 -15.0939,-147.01357 -42.0021,-216.17896 C 1204.0296,356.79947 1156.6674,285.04403 1093.2768,222.25111 1023.6257,153.25657 942.0561,103.61773 848.187,73.10267 742.6803,38.80442 626.5041,34.18565 516.77883,59.92698 405.83097,85.95514 303.03621,143.2908 221.86269,224.42186 161.06129,285.19147 114.30015,355.95102 83.39693,433.95 61.37594,489.53048 49.13148,539.94751 42.19585,603.5971 c -2.47702,22.73209 -2.46283,88.39329 0.0246,113.8529 7.88002,80.65438 27.15949,148.7595 62.13697,219.5 27.22002,55.0514 59.13932,101.1219 102.40015,147.7986 50.47668,54.4623 110.99414,99.3253 179.64243,133.1733 49.69592,24.5033 97.25794,40.6761 151,51.3456 31.6606,6.2857 47.9766,8.3003 94,11.6068 11.2119,0.8055 65.1034,-0.4484 80.5,-1.8731 z m 89,-393.255 c -0.825,-0.3064 -2.2875,-1.2432 -3.25,-2.0817 -1.6581,-1.4444 -1.75,-14.9 -1.75,-256.2145 V 372.75998 l 2.1049,-1.90499 c 2.0446,-1.8505 5.9225,-1.91245 135.5661,-2.16579 l 133.4612,-0.26081 2.9339,2.93388 2.9339,2.93388 V 627.31731 880.3385 l -2.4133,2.8057 -2.4133,2.8058 -132.8367,0.1767 C 862.1765,886.2237 801.725,886.0527 800.9,885.7462 Z M 970.7,862.25 c 1.6828,-1.6827 1.4936,-5.3635 -0.3714,-7.2286 -1.3638,-1.3638 -5.8463,-1.5714 -33.9286,-1.5714 -34.9767,0 -35.5,0.079 -35.5,5.3714 0,4.5573 0.5466,4.6286 35.5,4.6286 24.4111,0 33.415,-0.315 34.3,-1.2 z m 70.2381,-26.5006 c 1.9459,-1.2103 4.6459,-4.1353 6,-6.5 L 1049.4,824.95 v -197.5 -197.5 l -2.2483,-4.20686 c -1.4033,-2.62567 -3.8794,-5.16272 -6.5879,-6.75 L 1036.2243,416.45 H 934.6272 c -69.3514,0 -102.4905,0.33758 -104.4121,1.06362 -3.4486,1.30298 -8.0102,5.51102 -9.9044,9.13672 -2.0882,3.99714 -2.1213,396.20306 -0.034,401.08176 1.7421,4.0715 6.4728,8.5531 10.2275,9.6889 1.5926,0.4818 48.7957,0.7979 104.8957,0.7025 l 102,-0.1735 z m -208.6384,-9.0647 c -0.6052,-0.4041 -1.6177,-1.7176 -2.25,-2.919 -1.6658,-3.1647 -1.651,-389.12128 0.015,-392.77785 0.7385,-1.62086 2.4767,-2.93621 4.75,-3.59457 2.402,-0.69561 36.0422,-0.94011 101.9238,-0.74079 l 98.3385,0.29751 1.9115,2.36078 c 1.8675,2.30639 1.9115,6.87456 1.9115,198.25 0,194.55592 -0.014,195.90282 -2,197.88922 -1.9737,1.9737 -3.3229,1.9998 -102.75,1.9847 -55.4125,-0.01 -101.2451,-0.3459 -101.8503,-0.75 z M 938.5643,619.95 c 6.8381,-18.7 13.7085,-37.375 15.2677,-41.5 1.5591,-4.125 2.6357,-7.8375 2.3924,-8.25 -0.2434,-0.4125 -3.5219,-0.75 -7.2856,-0.75 -6.5609,0 -6.8836,0.11342 -7.8235,2.75 -0.5392,1.5125 -7.3332,20.19764 -15.0978,41.52254 -7.7646,21.3249 -14.1175,39.23211 -14.1175,39.79381 0,0.62687 2.748,0.9078 7.1157,0.72746 l 7.1157,-0.29381 z m -30.2351,8.42677 c 1.0289,-2.86117 1.442,-5.42336 0.9476,-5.87623 -0.4823,-0.44165 -6.626,-2.94697 -13.6528,-5.56738 -7.0269,-2.62041 -12.6519,-4.86496 -12.5,-4.98789 0.1518,-0.12292 6.0263,-2.37333 13.0544,-5.00089 7.0282,-2.62757 12.9957,-5.12884 13.2612,-5.55838 0.5279,-0.85417 -2.7871,-10.436 -3.6105,-10.436 -1.536,0 -38.5481,15.07757 -39.1638,15.95411 -0.4041,0.57524 -0.7347,2.84589 -0.7347,5.04589 0,2.2 0.3306,4.48304 0.7347,5.07342 0.5983,0.87408 37.4063,16.2202 39.2872,16.37972 0.3038,0.0258 1.3734,-2.2361 2.3767,-5.02637 z m 73.6055,-2.73689 19.4653,-7.81013 v -5.8337 -5.83371 l -18.5,-7.35876 c -10.175,-4.04732 -19.1231,-7.47009 -19.8847,-7.60617 -1.4531,-0.25962 -5.5677,9.88803 -4.2984,10.60088 0.3757,0.211 6.4432,2.53632 13.4834,5.16739 7.0401,2.63107 12.4401,5.09842 12,5.48299 -0.4402,0.38457 -3.9503,1.84867 -7.8003,3.25357 -3.85,1.40489 -9.5598,3.51983 -12.6884,4.69986 l -5.6884,2.14552 1.4551,4.20119 c 2.2215,6.41407 2.3361,6.70119 2.6751,6.70119 0.1738,0 9.0755,-3.51456 19.7813,-7.81012 z M 953.4821,391.00887 c 1.9227,-2.63225 1.7843,-4.1925 -0.5821,-6.55887 -1.8829,-1.88293 -3.3333,-2 -24.7775,-2 -24.763,0 -27.2225,0.49691 -27.2225,5.5 0,5.1486 2.3814,5.60101 27.8321,5.28745 21.7597,-0.26808 23.4276,-0.41827 24.75,-2.22858 z M 445.42568,826.4997 c -2.03947,-3.9439 -1.94432,-4.722 0.92887,-7.5951 l 2.45454,-2.4546 h 63.55586 63.55585 L 575.6604,772.2 575.4,727.95 422.9,727.45 c -120.85905,-0.39626 -153.10044,-0.76557 -155.39394,-1.77998 -5.19072,-2.29582 -10.15051,-6.96889 -13.1571,-12.39647 L 251.4,707.95 v -22.5 -22.5 l 266.75,-0.25185 266.75,-0.25185 v 32.49693 32.49692 l -97.75,0.25493 -97.75,0.25492 v 44 44 l 63.5969,0.5 c 67.146,0.5279 65.9555,0.4389 67.4159,5.0403 0.3246,1.0229 -0.1195,3.2322 -0.987,4.9097 l -1.5772,3.05 H 582.4 446.95136 Z M 251.1384,444.2 251.4,235.95 l 2.21138,-4.13445 c 2.81503,-5.26307 7.3911,-9.83914 12.65417,-12.65417 L 270.4,216.95 h 312 c 304.5274,0 312.0838,0.0455 315.5,1.89821 6.6907,3.62869 9.9667,6.8342 12.7253,12.45164 l 2.7747,5.65015 0.2797,60.75 0.2797,60.75 -57.2797,0.022 c -53.4378,0.0205 -57.548,0.14516 -61.2797,1.85877 -4.7578,2.1848 -6.8899,4.41489 -8.9619,9.37375 -1.3592,3.25309 -1.5381,19.90939 -1.5381,143.21336 V 652.45 H 517.8884 250.8768 Z m 82.0116,160.19746 18.75,-8.26062 v -5.13701 -5.137 l -19.17179,-8.45642 c -10.54449,-4.65102 -19.56421,-8.61298 -20.04383,-8.80435 -0.47962,-0.19137 -0.73981,3.14681 -0.57821,7.41818 l 0.29383,7.76612 8.26571,3.48277 c 4.54615,1.91553 8.02344,3.72505 7.72732,4.02117 -0.29612,0.29612 -4.01569,1.97855 -8.26571,3.73873 l -7.72732,3.20032 -0.2943,7.73431 c -0.2289,6.01568 -0.007,7.61878 1,7.21436 0.71187,-0.28597 9.7318,-4.23722 20.0443,-8.78056 z M 698.9,592.45 v -5 H 539.4 379.9 v 5 5 h 159.5 159.5 z m -365.50228,-85.5 18.5534,-8 -0.27556,-5.30856 -0.27556,-5.30856 -17.6433,-7.84019 C 309.42926,469.68227 311.9,469.87792 311.9,478.76184 v 7.44662 l 8,3.30297 c 4.4,1.81663 8,3.61663 8,4 0,0.38337 -3.6,2.18337 -8,4 l -8,3.30296 v 7.39113 c 0,5.98752 0.27957,7.32973 1.47216,7.0678 0.80969,-0.17782 9.82119,-3.92332 20.02556,-8.32332 z M 585.4,494.95 v -5 l -102.75,-0.25469 -102.75,-0.2547 v 4.83803 c 0,2.66091 0.30211,5.14014 0.67136,5.50939 0.36925,0.36924 46.60675,0.55674 102.75,0.41666 L 585.4,499.95 Z m 194.5,-0.006 v -5.5061 l -78.25,0.2561 -78.25,0.25609 -0.3166,3.85516 c -0.1742,2.12034 -0.076,4.48284 0.2186,5.25 0.4515,1.17654 12.7426,1.39475 78.5666,1.39475 H 779.9 Z M 332.37586,409.8469 351.9,401.2438 v -5.1878 -5.1878 l -14.25,-6.14682 c -7.8375,-3.38076 -16.8375,-7.29418 -20,-8.69649 l -5.75,-2.54967 v 7.75459 7.75459 l 8.49446,3.40501 c 4.67195,1.87275 8.26174,3.63772 7.97731,3.92215 -0.28442,0.28443 -3.99443,1.95729 -8.24445,3.71747 l -7.72732,3.20032 -0.29206,7.61033 c -0.16064,4.18567 -0.059,7.61032 0.22586,7.61032 0.28486,0 9.30379,-3.87139 20.04206,-8.6031 z M 455.9,397.45 v -5 h -38 -38 v 5 5 h 38 38 z m 324,-0.003 v -5.0034 l -143.25,0.2534 -143.25,0.2534 -0.32046,3.3452 c -0.17625,1.83985 -0.0779,3.97735 0.21862,4.75 0.45946,1.19734 21.66172,1.4048 143.57044,1.4048 H 779.9 Z M 332.93753,312.2065 c 7.99564,-3.56777 15.55449,-6.80963 16.79745,-7.20412 2.0386,-0.64703 2.23078,-1.25612 1.96246,-6.21979 L 351.4,293.28007 332.06891,284.86503 c -10.6321,-4.62826 -19.5196,-8.41503 -19.75,-8.41503 -0.2304,0 -0.41891,3.31261 -0.41891,7.36135 v 7.36136 l 7.75,3.22927 c 4.2625,1.7761 8.08415,3.54514 8.49255,3.9312 0.4084,0.38606 -2.9666,2.27102 -7.5,4.1888 l -8.24255,3.48687 -0.29263,7.75181 -0.29262,7.7518 3.29262,-1.40955 c 1.81095,-0.77525 9.83452,-4.32864 17.83016,-7.89641 z M 617.4,299.95 v -5 H 498.9 380.4 l -0.31663,3.85516 c -0.17415,2.12034 -0.0751,4.48469 0.22018,5.2541 0.45652,1.18967 18.23096,1.36093 118.81664,1.14484 L 617.4,304.95 Z m 162.5,-0.008 v -5.50763 l -61.75,0.25763 -61.75,0.25763 -0.3166,3.85516 c -0.5903,7.18687 -5.6675,6.64521 62.2852,6.64521 H 779.9 Z"
       id="path1" />
  </g>
</svg>
